<svg xmlns:x="&amp;ns_extend;" xmlns:i="&amp;ns_ai;" xmlns:graph="&amp;ns_graphs;"
    xmlns="http://www.w3.org/2000/svg" xmlns:xlink="http://www.w3.org/1999/xlink" version="1.1"
    id="Layer_1" x="0px" y="0px" viewBox="0 0 298.6039734 315"
    style="enable-background:new 0 0 298.6039734 315;" xml:space="preserve">
    <style type="text/css">.st0{fill:url(#SVGID_1_);}	.st1{fill:url(#SVGID_00000158734474128970914190000004256919463837100161_);}	.st2{fill:url(#SVGID_00000155131907343503594400000017883803606740065670_);}	.st3{fill:url(#SVGID_00000018947930305845957800000004173232176646865565_);}	.st4{fill:url(#SVGID_00000105428318719073164830000013917251587450801287_);}	.st5{fill:url(#SVGID_00000176727102874447293420000011438835553520521091_);}	.st6{fill:url(#SVGID_00000134941257446539809960000012340962719601792938_);}	.st7{fill:url(#SVGID_00000139252087773337249560000001423252024315561897_);}	.st8{fill:url(#SVGID_00000055700249289703036200000005149579770936848315_);}	.st9{fill:url(#SVGID_00000047021098714239085040000013496597014537992847_);}	.st10{fill:url(#SVGID_00000095332235539738617070000013578576409261433534_);}	.st11{fill:url(#SVGID_00000157290663054931227920000015738704905677925798_);}	.st12{fill:url(#SVGID_00000127027743794274598410000000864894888435689655_);}	.st13{fill:url(#SVGID_00000035490266766301722560000017636743028239213456_);}	.st14{fill:url(#SVGID_00000088818245982175238300000013277209717928904842_);}	.st15{fill:url(#SVGID_00000101791373108072607720000017952456742938917760_);}	.st16{fill:url(#SVGID_00000124867245817792124470000011127798064530993306_);}	.st17{fill:url(#SVGID_00000015322611141504152620000004388292721720597674_);}	.st18{fill:url(#SVGID_00000031196499714656425290000011724019151735596219_);}	.st19{fill:url(#SVGID_00000032643020455180499630000005926158912967059607_);}	.st20{fill:url(#SVGID_00000051341375215338636690000000965594137834519461_);}	.st21{fill:url(#SVGID_00000140730928309369443250000010905910982203546756_);}	.st22{fill:url(#SVGID_00000104676896668913489350000013227335190328769973_);}	.st23{fill:url(#SVGID_00000166641447771097043130000009063536947363506821_);}	.st24{fill:url(#SVGID_00000046326522373073058020000003519885005975183495_);}	.st25{fill:url(#SVGID_00000154425172818585369740000015753143095584990871_);}	.st26{fill:url(#SVGID_00000018936306855795138560000009016898116540184968_);}	.st27{fill:url(#SVGID_00000088837959795621937340000007451118892378909856_);}</style>
  <metadata>
            <sfw>
                    <slices/>
          <sliceSourceBounds bottomLeftOrigin="true" height="315" width="298.6039734" x="-5.038784" y="-233.7236786"/>
                </sfw>
        </metadata>
  <g id="color_index_g">
            <linearGradient id="SVGID_1_" gradientUnits="userSpaceOnUse" x1="149.7506866" y1="24.7877121" x2="145.5691376" y2="323.3573608">
                    <stop offset="0" style="stop-color: rgb(25, 42, 191);"/>
          <stop offset="1" style="stop-color: rgb(33, 168, 244);"/>
                </linearGradient>
      <path class="st0" d="M211.0724945,116.1588974c106.1076813-31.6254654,86.0092926-66.2065125,86.0092926-66.2065125&#9;&#9;c-35.467804,39.0145683-91.9205933,55.2706337-91.9205933,55.2706337&#9;&#9;C331.6628418,42.5632782,287.9192505,0.0020054,287.9192505,0.0020054&#9;&#9;c-8.2774353,16.8998127-18.5827637,31.6101818-29.8070068,44.358757c0.6656494-5.5080833-1.4928589-8.4876633-1.4928589-8.4876633&#9;&#9;c-9.8392639,22.1240196-29.9297791,38.0281067-31.2974243,39.0938187&#9;&#9;c-6.9002533,5.3322906-13.7657318,10.0718079-20.3908386,14.2666092c1.4134827-4.2461777,0.4517059-7.0503235,0.4517059-7.0503235&#9;&#9;c-4.7000427,5.8931961-10.9490662,11.143692-17.6626587,15.674202&#9;&#9;c-10.6464233,7.1844864-25.3666687,0.9822922-27.5775604-11.6697845c-0.0188141-0.1076584-0.0371704-0.2156982-0.055069-0.3241119&#9;&#9;c-2.5425415-15.3955994,17.6978912-24.414772,22.5961914-17.2481995c0,0,3.7764893-13.6149902-16.2011719-10.3157158&#9;&#9;c0,0-3.1073761-5.1352119-12.0881653-3.6520233c-8.9807129,1.4831161-19.017334,14.8140297-37.6718979-9.2175026&#9;&#9;c0,0-9.060379,24.3723145,25.0248489,22.1322556c0,0-5.8683777,3.2284622-15.8992462,2.3433075&#9;&#9;c0,0,2.09021,11.5164108,14.2825928,6.678627c0,0-0.164566,4.316452-1.1868439,9.8308105&#9;&#9;c-2.3686981,12.7771225-17.0368652,18.8514328-27.8237915,11.6052017&#9;&#9;c-6.7880249-4.5599289-13.1233215-9.8624649-17.904007-15.8370667c0,0-0.9617767,2.8041458,0.4517746,7.0503922&#9;&#9;c-6.6244125-4.1943817-13.4889984-8.9332809-20.3884964-14.2648849&#9;&#9;c-1.3527679-1.0539551-21.4564934-16.9624634-31.2997589-39.0956116c0,0-2.1585312,2.9795799-1.4928665,8.4877319&#9;&#9;C29.2623901,31.6121864,18.9571171,16.9018173,10.679677,0.0020054c0,0-43.7435722,42.5612717,82.7580719,105.2210083&#9;&#9;c0,0-56.4528732-16.2560654-91.9206009-55.2706337c0,0-20.098402,34.5810509,86.009285,66.2065125&#9;&#9;c0,0-35.7632828-2.068985-77.1423874-26.6008301c0,0-6.797987,27.4875031,78.029068,36.3544693&#9;&#9;c0,0-29.2608566,3.2512054-65.6153259-8.8669662c0,0,10.9358768,24.9751816,77.1423874,19.063942&#9;&#9;c0,0-26.0097122,8.4235687-53.2016563,3.9901123c0,0,15.9605103,25.4294586,66.5020752,0.5911255&#9;&#9;c0,0-13.5959702,14.0393066-39.9012451,19.2117157c0,0,15.22155,14.7782135,53.4972153-15.3693848&#9;&#9;c0,0-3.1034317,11.5269928-20.9850769,19.4048004c0,0,17.4651413,3.1933899,31.2238312-7.9994507&#9;&#9;c-0.3286133,1.4972992-0.7111053,3.18013-1.1499481,5.0256653c-0.2332764,0.9420929-3.3089905,12.9653625-10.9957657,24.0471649&#9;&#9;c-1.478775,2.1319122,1.2786255,4.6677551,3.224556,2.9515991c0.0438538-0.038681,0.0877838-0.0778198,0.1317749-0.1174469&#9;&#9;c-0.927887,2.7915497-1.9250717,5.6534424-2.9937592,8.5616608c-1.3056717,3.422226-7.2129669,17.7049561-18.3704071,27.7897034&#9;&#9;c0,0,2.9099426,0.8860474,6.9008102-1.4177094c-5.6996994,11.0569-12.5193329,21.6483307-20.6065292,30.3740082&#9;&#9;c0,0,28.0416946,21.0500793,46.7731476-71.3788605c0,0-2.0689697,57.0439911-31.9210205,92.2161713&#9;&#9;c0,0,25.7141571,19.7289124,35.1722412-61.8469238c0,0-1.2561646,47.8815308-13.0048523,77.8074341&#9;&#9;c0,0,3.5467682,17.7338562,19.0638733,25.0491028c15.5171661-7.3152466,19.0639496-25.0491028,19.0639496-25.0491028&#9;&#9;c-11.748703-29.9259033-13.0048676-77.8074341-13.0048676-77.8074341&#9;&#9;c9.4580841,81.5758362,35.1721649,61.8469238,35.1721649,61.8469238&#9;&#9;c-29.8519592-35.1721802-31.9209442-92.2161713-31.9209442-92.2161713&#9;&#9;c18.7313843,92.4289398,46.7730865,71.3788605,46.7730865,71.3788605&#9;&#9;c-8.087204-8.7256775-14.9069061-19.3171844-20.6066132-30.3740692c3.9908752,2.3038177,6.9009552,1.4177704,6.9009552,1.4177704&#9;&#9;c-11.161026-10.0879974-17.0686798-24.3768768-18.3717957-27.7933044c-1.0681915-2.9069672-2.065033-5.767746-2.9925079-8.558136&#9;&#9;c0.0442047,0.0398102,0.0883331,0.0791473,0.1324005,0.1180115c1.9458618,1.7159729,4.7033539-0.8195496,3.2246552-2.9513092&#9;&#9;c-7.6984558-11.0984497-10.7724609-23.1422272-10.9978027-24.0535431c-0.4382324-1.843399-0.8202209-3.524292-1.1485596-5.0201416&#9;&#9;c13.7586823,11.1929169,31.2238922,7.999527,31.2238922,7.999527&#9;&#9;c-17.8816376-7.8778076-20.9850769-19.4048004-20.9850769-19.4048004&#9;&#9;c38.2756042,30.1475983,53.4972229,15.3693848,53.4972229,15.3693848&#9;&#9;c-26.3052826-5.1724091-39.9012451-19.2117157-39.9012451-19.2117157&#9;&#9;c50.5415497,24.8383331,66.5020599-0.5911255,66.5020599-0.5911255&#9;&#9;c-27.1919403,4.4334564-53.2016449-3.9901123-53.2016449-3.9901123&#9;&#9;c66.2064362,5.9112396,77.1423798-19.063942,77.1423798-19.063942c-36.3544617,12.1181717-65.615387,8.8669662-65.615387,8.8669662&#9;&#9;c84.8270569-8.8669662,78.0290527-36.3544693,78.0290527-36.3544693&#9;&#9;C246.8357849,114.0899124,211.0724945,116.1588974,211.0724945,116.1588974z"/>
        </g>
  <g>
            <linearGradient id="SVGID_00000090276863258119586530000012538635151531413175_" gradientUnits="userSpaceOnUse" x1="79.1170731" y1="70.8974609" x2="11.8368301" y2="28.6486816">
                    <stop offset="0" style="stop-color:#000000;stop-opacity:0.5"/>
          <stop offset="1" style="stop-color:#000000;stop-opacity:0"/>
                </linearGradient>
      <linearGradient id="SVGID_00000116953067925676023410000017564773512638639237_" gradientUnits="userSpaceOnUse" x1="48.645298" y1="94.5205688" x2="10.5076361" y2="68.0098038">
                    <stop offset="0" style="stop-color:#000000;stop-opacity:0.5"/>
          <stop offset="1" style="stop-color:#000000;stop-opacity:0"/>
                </linearGradient>
      <linearGradient id="SVGID_00000090253744960737615260000012898187690724198286_" gradientUnits="userSpaceOnUse" x1="76.5009155" y1="109.4480896" x2="49.2083321" y2="94.393631">
                    <stop offset="0" style="stop-color:#000000;stop-opacity:0.5"/>
          <stop offset="1" style="stop-color:#000000;stop-opacity:0"/>
                </linearGradient>
      <linearGradient id="SVGID_00000129904054644646793190000004791707976428394659_" gradientUnits="userSpaceOnUse" x1="43.522934" y1="115.4638367" x2="21.3791733" y2="100.4750214">
                    <stop offset="0" style="stop-color:#000000;stop-opacity:0.5"/>
          <stop offset="1" style="stop-color:#000000;stop-opacity:0"/>
                </linearGradient>
      <linearGradient id="SVGID_00000110428929420121637460000014647117338539651773_" gradientUnits="userSpaceOnUse" x1="83.2702637" y1="118.3154678" x2="58.6502113" y2="115.000473">
                    <stop offset="0" style="stop-color:#000000;stop-opacity:0.5"/>
          <stop offset="1" style="stop-color:#000000;stop-opacity:0"/>
                </linearGradient>
      <linearGradient id="SVGID_00000000936652668412093490000018309635683183703223_" gradientUnits="userSpaceOnUse" x1="64.4300842" y1="133.4719086" x2="36.9140167" y2="124.8295135">
                    <stop offset="0" style="stop-color:#000000;stop-opacity:0.5"/>
          <stop offset="1" style="stop-color:#000000;stop-opacity:0"/>
                </linearGradient>
      <linearGradient id="SVGID_00000164499705584340695680000016224576960829489075_" gradientUnits="userSpaceOnUse" x1="95.362793" y1="130.879364" x2="71.2717743" y2="130.909668">
                    <stop offset="0" style="stop-color:#000000;stop-opacity:0.5"/>
          <stop offset="1" style="stop-color:#000000;stop-opacity:0"/>
                </linearGradient>
      <linearGradient id="SVGID_00000089565272451835445190000001574915274572837249_" gradientUnits="userSpaceOnUse" x1="98.9150314" y1="142.9183502" x2="64.4612427" y2="145.605011">
                    <stop offset="0" style="stop-color:#000000;stop-opacity:0.5"/>
          <stop offset="1" style="stop-color:#000000;stop-opacity:0"/>
                </linearGradient>
      <linearGradient id="SVGID_00000130636511607336087210000013451916604281883811_" gradientUnits="userSpaceOnUse" x1="116.5607758" y1="144.6717834" x2="89.1858597" y2="159.2415314">
                    <stop offset="0" style="stop-color:#000000;stop-opacity:0.5"/>
          <stop offset="1" style="stop-color:#000000;stop-opacity:0"/>
                </linearGradient>
      <linearGradient id="SVGID_00000089571717351629978440000010715451407831788952_" gradientUnits="userSpaceOnUse" x1="131.9620667" y1="153.4996338" x2="116.7961731" y2="162.5368958">
                    <stop offset="0" style="stop-color:#000000;stop-opacity:0.5"/>
          <stop offset="1" style="stop-color:#000000;stop-opacity:0"/>
                </linearGradient>
      <linearGradient id="SVGID_00000091698701904303221220000012262268831054603423_" gradientUnits="userSpaceOnUse" x1="141.9102173" y1="183.4519348" x2="108.0706787" y2="244.4039307">
                    <stop offset="0" style="stop-color:#000000;stop-opacity:0.5"/>
          <stop offset="1" style="stop-color:#000000;stop-opacity:0"/>
                </linearGradient>
      <linearGradient id="SVGID_00000129903963321126456200000014296817260989271211_" gradientUnits="userSpaceOnUse" x1="151.4529114" y1="215.9644623" x2="118.0352936" y2="266.4299011">
                    <stop offset="0" style="stop-color:#000000;stop-opacity:0.5"/>
          <stop offset="1" style="stop-color:#000000;stop-opacity:0"/>
                </linearGradient>
      <linearGradient id="SVGID_00000009565789486158083590000001021234598847391131_" gradientUnits="userSpaceOnUse" x1="149.2782745" y1="250.2451782" x2="149.3086243" y2="301.035553">
                    <stop offset="0" style="stop-color:#000000;stop-opacity:0.5"/>
          <stop offset="1" style="stop-color:#000000;stop-opacity:0"/>
                </linearGradient>
      <linearGradient id="SVGID_00000121967895110125156600000010850081989027255954_" gradientUnits="userSpaceOnUse" x1="196.8642731" y1="70.8974609" x2="129.5840149" y2="28.6486835" gradientTransform="matrix(-1 0 0 1 416.3511658 0)">
                    <stop offset="0" style="stop-color:#000000;stop-opacity:0.5"/>
          <stop offset="1" style="stop-color:#000000;stop-opacity:0"/>
                </linearGradient>
      <linearGradient id="SVGID_00000046307972641009272160000017116749036818247310_" gradientUnits="userSpaceOnUse" x1="166.3924866" y1="94.5205688" x2="128.2548218" y2="68.0098038" gradientTransform="matrix(-1 0 0 1 416.3511658 0)">
                    <stop offset="0" style="stop-color:#000000;stop-opacity:0.5"/>
          <stop offset="1" style="stop-color:#000000;stop-opacity:0"/>
                </linearGradient>
      <linearGradient id="SVGID_00000031928255435857964000000012251893956040529793_" gradientUnits="userSpaceOnUse" x1="194.2481079" y1="109.4480896" x2="166.9555206" y2="94.393631" gradientTransform="matrix(-1 0 0 1 416.3511658 0)">
                    <stop offset="0" style="stop-color:#000000;stop-opacity:0.5"/>
          <stop offset="1" style="stop-color:#000000;stop-opacity:0"/>
                </linearGradient>
      <linearGradient id="SVGID_00000106837187731742284600000009590435745132886695_" gradientUnits="userSpaceOnUse" x1="161.2701263" y1="115.4638367" x2="139.126358" y2="100.4750214" gradientTransform="matrix(-1 0 0 1 416.3511658 0)">
                    <stop offset="0" style="stop-color:#000000;stop-opacity:0.5"/>
          <stop offset="1" style="stop-color:#000000;stop-opacity:0"/>
                </linearGradient>
      <linearGradient id="SVGID_00000052814546989417074200000011087403136381684613_" gradientUnits="userSpaceOnUse" x1="201.0174561" y1="118.3154678" x2="176.3973999" y2="115.000473" gradientTransform="matrix(-1 0 0 1 416.3511658 0)">
                    <stop offset="0" style="stop-color:#000000;stop-opacity:0.5"/>
          <stop offset="1" style="stop-color:#000000;stop-opacity:0"/>
                </linearGradient>
      <linearGradient id="SVGID_00000098941827900405148060000016006355264528078237_" gradientUnits="userSpaceOnUse" x1="182.1772766" y1="133.4719086" x2="154.6612091" y2="124.8295135" gradientTransform="matrix(-1 0 0 1 416.3511658 0)">
                    <stop offset="0" style="stop-color:#000000;stop-opacity:0.5"/>
          <stop offset="1" style="stop-color:#000000;stop-opacity:0"/>
                </linearGradient>
      <linearGradient id="SVGID_00000035529973623891065650000003430140274387265966_" gradientUnits="userSpaceOnUse" x1="213.1034698" y1="130.8729401" x2="189.0124664" y2="130.903244" gradientTransform="matrix(-1 0 0 1 416.3511658 0)">
                    <stop offset="0" style="stop-color:#000000;stop-opacity:0.5"/>
          <stop offset="1" style="stop-color:#000000;stop-opacity:0"/>
                </linearGradient>
      <linearGradient id="SVGID_00000156571584839272677070000002053810960045047190_" gradientUnits="userSpaceOnUse" x1="216.6622162" y1="142.9183502" x2="182.2084351" y2="145.605011" gradientTransform="matrix(-1 0 0 1 416.3511658 0)">
                    <stop offset="0" style="stop-color:#000000;stop-opacity:0.5"/>
          <stop offset="1" style="stop-color:#000000;stop-opacity:0"/>
                </linearGradient>
      <linearGradient id="SVGID_00000011745005920778058860000002495201196923079854_" gradientUnits="userSpaceOnUse" x1="234.3079681" y1="144.6717834" x2="206.9330444" y2="159.2415314" gradientTransform="matrix(-1 0 0 1 416.3511658 0)">
                    <stop offset="0" style="stop-color:#000000;stop-opacity:0.5"/>
          <stop offset="1" style="stop-color:#000000;stop-opacity:0"/>
                </linearGradient>
      <linearGradient id="SVGID_00000011714216765748112030000003261522543097977246_" gradientUnits="userSpaceOnUse" x1="249.7092438" y1="153.4996338" x2="234.5433655" y2="162.5368958" gradientTransform="matrix(-1 0 0 1 416.3511658 0)">
                    <stop offset="0" style="stop-color:#000000;stop-opacity:0.5"/>
          <stop offset="1" style="stop-color:#000000;stop-opacity:0"/>
                </linearGradient>
      <linearGradient id="SVGID_00000083774233710037930660000008069824868597387954_" gradientUnits="userSpaceOnUse" x1="259.6574097" y1="183.4519348" x2="225.8178711" y2="244.4039307" gradientTransform="matrix(-1 0 0 1 416.3511658 0)">
                    <stop offset="0" style="stop-color:#000000;stop-opacity:0.5"/>
          <stop offset="1" style="stop-color:#000000;stop-opacity:0"/>
                </linearGradient>
      <linearGradient id="SVGID_00000116952084092124682700000009175177717329023150_" gradientUnits="userSpaceOnUse" x1="269.2001038" y1="215.9644623" x2="235.782486" y2="266.4299011" gradientTransform="matrix(-1 0 0 1 416.3511658 0)">
                    <stop offset="0" style="stop-color:#000000;stop-opacity:0.5"/>
          <stop offset="1" style="stop-color:#000000;stop-opacity:0"/>
                </linearGradient>
      <linearGradient id="SVGID_00000116944374930946555280000002769630596670984864_" gradientUnits="userSpaceOnUse" x1="163.4617462" y1="76.6373215" x2="127.7611237" y2="47.8601723">
                    <stop offset="0" style="stop-color:#000000;stop-opacity:0.5"/>
          <stop offset="1" style="stop-color:#000000;stop-opacity:0"/>
                </linearGradient>
      <linearGradient id="SVGID_00000158732369410861914090000008998269848379620799_" gradientUnits="userSpaceOnUse" x1="163.3384399" y1="51.6123505" x2="170.5656738" y2="94.9820099">
                    <stop offset="0" style="stop-color:#000000;stop-opacity:0.5"/>
          <stop offset="1" style="stop-color:#000000;stop-opacity:0"/>
                </linearGradient>
      <path style="fill:url(#SVGID_00000090276863258119586530000012538635151531413175_);" d="M57.0785141,84.9748306H57.067173&#9;&#9;C-23.8175526,33.5707283,10.6822424,0,10.6822424,0c8.2822104,16.904377,18.5811234,31.6106644,29.809166,44.3568916&#9;&#9;C40.4914093,44.3568916,39.9588661,67.9912033,57.0785141,84.9748306z"/>
      <path style="fill:url(#SVGID_00000116953067925676023410000017564773512638639237_);" d="M43.3805428,99.8398285&#9;&#9;C-12.2836437,73.701561,1.5162603,49.9539032,1.5162603,49.9539032&#9;&#9;c8.2028923,9.0186844,17.5388527,16.8249893,27.0333786,23.4870224l0.0339546,0.0340195&#9;&#9;C28.5835934,73.4749451,20.9811535,87.2861938,43.3805428,99.8398285z"/>
      <path style="fill:url(#SVGID_00000090253744960737615260000012898187690724198286_);" d="M83.1714172,114.8180237&#9;&#9;c-14.5363846-4.4640121-26.5800819-9.0186844-36.5391769-13.4939728&#9;&#9;c-4.7472649-5.3930817-7.4891014-15.2048798-6.3221474-20.1900253c5.733036,3.4783096,11.3866806,6.5486908,16.7343979,9.245224&#9;&#9;l0.0453644,0.0226822C57.0898552,90.4019318,54.6652222,105.3687897,83.1714172,114.8180237z"/>
      <path style="fill:url(#SVGID_00000129904054644646793190000004791707976428394659_);" d="M46.7568512,118.4549713&#9;&#9;C6.1049566,106.8756943,10.3876524,89.56353,10.3876524,89.56353c7.4438028,4.4186478,14.7062883,8.1008911,21.6062737,11.1713409&#9;&#9;C31.993927,100.7348709,27.1220512,110.3993073,46.7568512,118.4549713z"/>
      <path style="fill:url(#SVGID_00000110428929420121637460000014647117338539651773_);" d="M87.7147522,125.8307266&#9;&#9;c-12.2590485-1.3029022-22.5806427-2.9910583-31.2820549-4.9285126c-0.0113411,0-0.0340233,0-0.0453644-0.0113373&#9;&#9;c-8.8260269-4.3053818-10.6501389-11.9078217-11.024044-14.7403107c6.1975327,2.2547226,11.9417686,4.010849,17.0629425,5.3704605&#9;&#9;C66.9015884,122.5337372,84.0211639,125.343544,87.7147522,125.8307266z"/>
      <path style="fill:url(#SVGID_00000000936652668412093490000018309635683183703223_);" d="M66.7316055,136.4129639&#9;&#9;c-36.901741-3.3083344-43.9262733-19.3629684-43.9262733-19.3629684&#9;&#9;c8.9846649,3.0024719,17.5501251,5.0531921,25.3338127,6.4467621&#9;&#9;C48.1391449,123.4967575,47.2780571,133.5351715,66.7316055,136.4129639z"/>
      <path style="fill:url(#SVGID_00000164499705584340695680000016224576960829489075_);" d="M99.9397736,136.1070251&#9;&#9;c-10.1176682,0.9064484-18.9436951,1.0877075-26.6480637,0.747818c-0.0113449,0-0.0226822,0-0.0226822,0&#9;&#9;c-9.9703674-2.503952-15.0915375-9.5511627-16.6210594-12.0437698c5.3930817,0.7137909,10.287571,1.1103134,14.5250435,1.3142471&#9;&#9;h0.0226135C72.7478256,136.5375671,99.9397736,136.1070251,99.9397736,136.1070251z"/>
      <path style="fill:url(#SVGID_00000089565272451835445190000001574915274572837249_);" d="M113.2298813,140.7070007&#9;&#9;c-0.0226822,0.0113373-0.0679779,0.0340118-0.1246796,0.0679779c-50.4296761,24.7106781-66.3596191-0.6797791-66.3596191-0.6797791&#9;&#9;c9.1092796,1.4842224,18.0825996,1.5295258,25.9909706,0.9290619h0.0452957&#9;&#9;C72.7818451,141.0242615,79.6931076,154.5862122,113.2298813,140.7070007z"/>
      <path style="fill:url(#SVGID_00000130636511607336087210000013451916604281883811_);" d="M126.8258514,144.5478668&#9;&#9;l-0.0340195,0.0340271c-38.238678,30.0924225-53.4434891,15.3180847-53.4434891,15.3180847&#9;&#9;c9.2452316-1.8127747,16.9156494-4.7359161,22.9885025-7.7496643l0.0226822-0.0113373&#9;&#9;C96.3595276,152.1389771,104.3811722,160.1945648,126.8258514,144.5478668z"/>
      <path style="fill:url(#SVGID_00000089571717351629978440000010715451407831788952_);" d="M137.0794678,155.934494&#9;&#9;c-13.7546082,11.1940155-31.2254105,7.9989471-31.2254105,7.9989471c6.412735-2.8211517,10.9221115-6.1181335,14.0718079-9.1772461&#9;&#9;C119.9258652,154.7561951,124.2652664,161.4295654,137.0794678,155.934494z"/>
      <path style="fill:url(#SVGID_00000091698701904303221220000012262268831054603423_);" d="M139.9912872,181.7781677&#9;&#9;c-18.7284927,92.4299622-46.7701874,71.3788605-46.7701874,71.3788605&#9;&#9;c8.0896225-8.7240295,14.9102936-19.3176117,20.60923-30.3756714&#9;&#9;C113.8303299,222.7813568,131.425827,216.7991638,139.9912872,181.7781677z"/>
      <path style="fill:url(#SVGID_00000129903963321126456200000014296817260989271211_);" d="M143.2316437,212.2444916&#9;&#9;c-9.4718475,81.4625702-35.1568909,61.7483673-35.1568909,61.7483673&#9;&#9;c8.1575317-9.6191406,14.2417221-20.8584442,18.7624435-32.1204529&#9;&#9;C126.8371964,241.872406,137.9065399,245.8265533,143.2316437,212.2444916z"/>
      <path style="fill:url(#SVGID_00000009565789486158083590000001021234598847391131_);" d="M168.3678131,289.9454956&#9;&#9;c-4.226059-10.7521362-7.092514-23.8269653-9.0299683-36.1652679c0,0,0.5323334,18.8726044-10.0358582,25.751297&#9;&#9;c-10.5681915-6.8786926-10.0358429-25.751297-10.0358429-25.751297&#9;&#9;c-1.9374542,12.3383026-4.8039093,25.4131317-9.0299683,36.1652679c0,0,3.5455322,17.7387695,19.0632629,25.0480042v0.0025635&#9;&#9;c0.000824-0.0004272,0.0017242-0.000824,0.0025482-0.0012512c0.0008392,0.0004272,0.0016632,0.000824,0.0025024,0.0012512&#9;&#9;v-0.0025635C164.8222809,307.6842651,168.3678131,289.9454956,168.3678131,289.9454956z"/>
      <path style="fill:url(#SVGID_00000121967895110125156600000010850081989027255954_);" d="M241.5254669,84.9748306h0.0113525&#9;&#9;C322.4215393,33.5707283,287.9217529,0,287.9217529,0c-8.2822266,16.904377-18.5811157,31.6106644-29.8091736,44.3568916&#9;&#9;C258.1125793,44.3568916,258.6451111,67.9912033,241.5254669,84.9748306z"/>
      <path style="fill:url(#SVGID_00000046307972641009272160000017116749036818247310_);" d="M255.2234497,99.8398285&#9;&#9;c55.6641846-26.1382675,41.8642883-49.8859253,41.8642883-49.8859253&#9;&#9;c-8.2029114,9.0186844-17.5388489,16.8249893-27.0333862,23.4870224l-0.0339661,0.0340195&#9;&#9;C270.0203857,73.4749451,277.6228333,87.2861938,255.2234497,99.8398285z"/>
      <path style="fill:url(#SVGID_00000031928255435857964000000012251893956040529793_);" d="M215.4325714,114.8180237&#9;&#9;c14.536377-4.4640121,26.5800781-9.0186844,36.5391846-13.4939728c4.7472687-5.3930817,7.48909-15.2048798,6.3221283-20.1900253&#9;&#9;c-5.733017,3.4783096-11.386673,6.5486908-16.7343903,9.245224l-0.0453644,0.0226822&#9;&#9;C241.5141296,90.4019318,243.9387665,105.3687897,215.4325714,114.8180237z"/>
      <path style="fill:url(#SVGID_00000106837187731742284600000009590435745132886695_);" d="M251.8471375,118.4549713&#9;&#9;c40.651886-11.579277,36.3692017-28.8914413,36.3692017-28.8914413&#9;&#9;c-7.4438171,4.4186478-14.7062988,8.1008911-21.6062927,11.1713409&#9;&#9;C266.6100464,100.7348709,271.4819336,110.3993073,251.8471375,118.4549713z"/>
      <path style="fill:url(#SVGID_00000052814546989417074200000011087403136381684613_);" d="M210.8892365,125.8307266&#9;&#9;c12.2590485-1.3029022,22.5806427-2.9910583,31.2820587-4.9285126c0.0113373,0,0.0340118,0,0.0453644-0.0113373&#9;&#9;c8.8260193-4.3053818,10.6501312-11.9078217,11.0240479-14.7403107c-6.1975403,2.2547226-11.9417725,4.010849-17.0629425,5.3704605&#9;&#9;C231.7024078,122.5337372,214.5828247,125.343544,210.8892365,125.8307266z"/>
      <path style="fill:url(#SVGID_00000098941827900405148060000016006355264528078237_);" d="M231.8723755,136.4129639&#9;&#9;c36.9017639-3.3083344,43.9262695-19.3629684,43.9262695-19.3629684&#9;&#9;c-8.9846497,3.0024719-17.5501099,5.0531921-25.3338013,6.4467621&#9;&#9;C250.4648438,123.4967575,251.3259277,133.5351715,231.8723755,136.4129639z"/>
      <path style="fill:url(#SVGID_00000035529973623891065650000003430140274387265966_);" d="M198.6642151,136.1070251&#9;&#9;c10.1176605,0.9064484,18.9436951,1.0877075,26.648056,0.747818c0.0113525,0,0.0226898,0,0.0226898,0&#9;&#9;c9.9703674-2.503952,15.0915375-9.5511627,16.6210632-12.0437698c-5.3930817,0.7137909-10.2875824,1.1103134-14.5250397,1.3142471&#9;&#9;h-0.0226135C225.8561707,136.5375671,198.6642151,136.1070251,198.6642151,136.1070251z"/>
      <path style="fill:url(#SVGID_00000156571584839272677070000002053810960045047190_);" d="M185.374115,140.7070007&#9;&#9;c0.0226746,0.0113373,0.0679626,0.0340118,0.1246796,0.0679779c50.4296722,24.7106781,66.3596191-0.6797791,66.3596191-0.6797791&#9;&#9;c-9.1092834,1.4842224-18.0826111,1.5295258-25.9909821,0.9290619h-0.0452881&#9;&#9;C225.8221436,141.0242615,218.9108887,154.5862122,185.374115,140.7070007z"/>
      <path style="fill:url(#SVGID_00000011745005920778058860000002495201196923079854_);" d="M171.7781372,144.5478668&#9;&#9;l0.0340271,0.0340271c38.2386627,30.0924225,53.4434814,15.3180847,53.4434814,15.3180847&#9;&#9;c-9.2452393-1.8127747-16.9156494-4.7359161-22.9885101-7.7496643l-0.0226746-0.0113373&#9;&#9;C202.2444611,152.1389771,194.2228241,160.1945648,171.7781372,144.5478668z"/>
      <path style="fill:url(#SVGID_00000011714216765748112030000003261522543097977246_);" d="M161.5245209,155.934494&#9;&#9;c13.7546082,11.1940155,31.2254181,7.9989471,31.2254181,7.9989471c-6.412735-2.8211517-10.9221191-6.1181335-14.0718231-9.1772461&#9;&#9;C178.6781158,154.7561951,174.3387146,161.4295654,161.5245209,155.934494z"/>
      <path style="fill:url(#SVGID_00000083774233710037930660000008069824868597387954_);" d="M158.6127014,181.7781677&#9;&#9;c18.7284851,92.4299622,46.7701874,71.3788605,46.7701874,71.3788605&#9;&#9;c-8.0896301-8.7240295-14.9102936-19.3176117-20.6092377-30.3756714&#9;&#9;C184.7736511,222.7813568,167.1781616,216.7991638,158.6127014,181.7781677z"/>
      <path style="fill:url(#SVGID_00000116952084092124682700000009175177717329023150_);" d="M155.372345,212.2444916&#9;&#9;c9.4718475,81.4625702,35.1568909,61.7483673,35.1568909,61.7483673&#9;&#9;c-8.1575317-9.6191406-14.2417297-20.8584442-18.7624359-32.1204529&#9;&#9;C171.7667999,241.872406,160.6974487,245.8265533,155.372345,212.2444916z"/>
      <path style="fill:url(#SVGID_00000116944374930946555280000002769630596670984864_);" d="M166.4807739,58.3040886&#9;&#9;c0,0-3.1044006-5.1437836-12.0777893-3.6595612c-8.9846649,1.4842262-19.0230103,14.819561-37.6721802-9.211277&#9;&#9;c0,0-9.0639801,24.3707962,25.0166168,22.1274109c0,0,7.2938232-0.9827118,12.6185303-3.8644638&#9;&#9;C159.6906433,60.8144417,162.7237854,59.0517578,166.4807739,58.3040886z"/>
      <path style="fill:url(#SVGID_00000158732369410861914090000008998269848379620799_);" d="M158.6126709,109.9520569&#9;&#9;c-12.0962219-9.2518539-5.9431458-38.3465881,8.0153961-43.6716919&#9;&#9;c13.9698181-5.3137589,16.0545654,2.3339767,16.0545654,2.3339767c-4.8945618-7.1604843-25.1298828,1.8581314-22.59198,17.2442627&#9;&#9;c0.0226746,0.1132736,0.0339508,0.2266159,0.0566406,0.3285446c2.2093506,12.655632,16.9269867,18.853096,27.5771942,11.6699295&#9;&#9;C194.4318085,93.3250885,186.0176086,130.9128418,158.6126709,109.9520569z"/>
        </g>
</svg>