<svg xmlns:mydata="http://www.w3.org/2000/svg" mydata:contrastcolor="11111f"
    mydata:template="Contrast" mydata:presentation="2.5" mydata:layouttype="undefined"
    mydata:specialfontid="undefined" mydata:id1="053" mydata:id2="019"
    mydata:companyname="Flow Wing" mydata:companytagline="" version="1.1"
    xmlns="http://www.w3.org/2000/svg" xmlns:xlink="http://www.w3.org/1999/xlink"
    style="height: 324px;" viewBox="0 0 550 470">
    <g fill="#41b6e6" fill-rule="nonzero" stroke="none" stroke-width="1" stroke-linecap="butt"
        stroke-linejoin="miter" stroke-miterlimit="10" stroke-dasharray="" stroke-dashoffset="0"
        font-family="none" font-weight="none" font-size="none" text-anchor="none"
        style="mix-blend-mode: normal">
        <g
            data-paper-data="{&quot;isGlobalGroup&quot;:true,&quot;bounds&quot;:{&quot;x&quot;:106.85894306936727,&quot;y&quot;:152.59076942811663,&quot;width&quot;:336.2821138612656,&quot;height&quot;:164.8184611437668}}">
            <g data-paper-data="{&quot;isSecondaryText&quot;:true}" id="element-id-34648">
                <path
                    d="M109.59323,285.05172h6.04069l7.18796,23.64767l7.6094,-23.64767h5.03391l7.63281,23.64767l7.23478,-23.64767h5.99387l-10.25513,31.98289h-5.94704l-7.14113,-22.28969l-7.18796,22.28969h-5.94704z"
                    data-paper-data="{&quot;glyphName&quot;:&quot;W&quot;,&quot;glyphIndex&quot;:0,&quot;firstGlyphOfWord&quot;:true,&quot;word&quot;:1}"
                    id="element-id-86483"></path>
                <path d="M223.18751,317.03461v-31.98289h5.75973v31.98289z"
                    data-paper-data="{&quot;glyphName&quot;:&quot;I&quot;,&quot;glyphIndex&quot;:1,&quot;word&quot;:1}"
                    id="element-id-90844"></path>
                <path
                    d="M291.97946,317.03461v-31.98289h6.53238l16.4363,23.6945v-23.6945h5.75973v31.98289h-6.43872l-16.52996,-23.88181v23.88181z"
                    data-paper-data="{&quot;glyphName&quot;:&quot;N&quot;,&quot;glyphIndex&quot;:2,&quot;word&quot;:1}"
                    id="element-id-73194"></path>
                <path
                    d="M391.91049,301.06658c0,-2.62232 0.30438,-4.92465 0.91313,-6.90699c0.60875,-1.98235 1.39311,-3.56276 2.35306,-4.74124c0.95995,-1.17848 2.11892,-2.13844 3.47691,-2.87986c1.35799,-0.74143 2.68475,-1.23702 3.9803,-1.48676c1.29555,-0.24974 2.69256,-0.37462 4.19102,-0.37462c3.38716,0 6.89919,0.71802 10.53609,2.15405v5.26805c-3.44959,-1.52968 -6.77432,-2.29453 -9.97417,-2.29453c-1.12385,0 -2.11502,0.07024 -2.97352,0.21072c-0.8585,0.14048 -1.7248,0.44486 -2.5989,0.91313c-0.87411,0.46827 -1.59992,1.10044 -2.17746,1.8965c-0.57753,0.79606 -1.04971,1.88869 -1.41652,3.27789c-0.36681,1.3892 -0.55022,3.02815 -0.55022,4.91684c0,1.91991 0.18341,3.57447 0.55022,4.96367c0.36681,1.3892 0.83899,2.48183 1.41652,3.27789c0.57753,0.79606 1.30335,1.42823 2.17746,1.8965c0.87411,0.46827 1.74431,0.77265 2.61061,0.91313c0.8663,0.14048 1.85357,0.21072 2.96181,0.21072c1.76382,0 3.65251,-0.27316 5.66608,-0.81947v-7.65623h-7.51574v-5.08074h12.83062v15.96803c-3.71495,1.81065 -7.53135,2.71597 -11.44922,2.71597c-0.03122,0 -0.06244,0 -0.09365,0c-1.49847,0 -2.89547,-0.12487 -4.19102,-0.37462c-1.29555,-0.24974 -2.62232,-0.74533 -3.9803,-1.48676c-1.35799,-0.74143 -2.51696,-1.69358 -3.47691,-2.85645c-0.95995,-1.16287 -1.74431,-2.74329 -2.35306,-4.74124c-0.60875,-1.99796 -0.91313,-4.29248 -0.91313,-6.88358z"
                    data-paper-data="{&quot;glyphName&quot;:&quot;G&quot;,&quot;glyphIndex&quot;:3,&quot;lastGlyphOfWord&quot;:true,&quot;word&quot;:1}"
                    id="element-id-36766"></path>
            </g>
            <g data-paper-data="{&quot;isPrimaryText&quot;:true}" id="element-id-88307">
                <path
                    d="M166.97155,166.96533v-12.77756h-60.11261v112.09404h13.79396v-52.12663h40.22027v-12.92276h-40.22027v-34.26709z"
                    data-paper-data="{&quot;glyphName&quot;:&quot;F&quot;,&quot;glyphIndex&quot;:0,&quot;firstGlyphOfWord&quot;:true,&quot;word&quot;:1}"
                    fill="#ffffff" id="element-id-44909"></path>
                <path d="M239.42611,266.13661v-12.77756h-43.70506v-99.17128h-13.93915v111.94884z"
                    data-paper-data="{&quot;glyphName&quot;:&quot;L&quot;,&quot;glyphIndex&quot;:1,&quot;word&quot;:1}"
                    fill="#ffffff" id="element-id-95492"></path>
                <path
                    d="M360.95812,243.19508l-8.13117,-41.81746l-10.74477,-47.33505h-14.22955l26.71671,112.23924h12.63236l9.43797,-37.60668l8.85717,-40.22027l8.85717,40.22027l9.43797,37.60668h12.63236l26.71671,-112.23924h-14.22955l-10.74477,47.33505l-8.13117,41.81746l-19.16634,-83.05413h-10.74477z"
                    data-paper-data="{&quot;glyphName&quot;:&quot;W&quot;,&quot;glyphIndex&quot;:3,&quot;lastGlyphOfWord&quot;:true,&quot;word&quot;:1}"
                    fill="#ffffff" id="element-id-38165"></path>
                <g
                    data-paper-data="{&quot;fillRule&quot;:&quot;evenodd&quot;,&quot;fillRuleOriginal&quot;:&quot;evenodd&quot;,&quot;isIcon&quot;:true,&quot;iconStyle&quot;:&quot;icon-in-text&quot;,&quot;selectedEffects&quot;:{&quot;container&quot;:&quot;&quot;,&quot;transformation&quot;:&quot;&quot;,&quot;pattern&quot;:&quot;&quot;},&quot;bounds&quot;:{&quot;x&quot;:247.84795650525533,&quot;y&quot;:152.59076942811663,&quot;width&quot;:72.5991162962205,&quot;height&quot;:114.56218351668235},&quot;iconType&quot;:&quot;icon&quot;,&quot;rawIconId&quot;:&quot;1002580&quot;,&quot;isDetailed&quot;:false,&quot;suitableAsStandaloneIcon&quot;:true}"
                    id="element-id-94842">
                    <path
                        d="M320.44707,229.40089c0,24.53904 -5.51701,37.75206 -36.29906,37.75206c-30.78305,0 -36.30006,-13.21302 -36.30006,-37.75206v-39.05806c0,-24.53904 5.51701,-37.75206 36.30006,-37.75206c30.78205,0 36.29906,13.21302 36.29906,37.75206zM288.92465,179.35155l-5.07242,-4.87479l-6.38993,26.02086l10.14484,-2.9644l26.35024,25.16448zM253.22007,224.34458l-1.64689,6.78519l25.75736,-7.50982l-7.64157,-7.31219l8.62971,-35.44107zM294.19469,209.1932l-7.64157,-7.31219l-10.14484,2.9644l-2.50327,10.27659l7.64157,7.24632l10.14484,-2.9644zM310.07072,232.71079l6.71931,-1.97627l-19.36742,-18.51104l-2.50327,10.27659l-34.97994,10.21072z"
                        data-paper-data="{&quot;isPathIcon&quot;:true}" id="element-id-90358"></path>
                </g>
            </g>
        </g>
    </g>

    <rect data-element-id="element-id-88307" stroke-width="2" fill="transparent"
        class="invisible-element-box grouping-element" x="107" y="153" width="336" height="115"
        data-element-name="isPrimaryText"></rect>
    <rect data-element-id="element-id-38165" stroke-width="2" fill="transparent"
        class="invisible-element-box individual-element" x="328" y="154" width="115" height="112"></rect>
    <rect data-element-id="element-id-34648" stroke-width="2" fill="transparent"
        class="invisible-element-box grouping-element" x="110" y="285" width="309" height="33"
        data-element-name="isSecondaryText"></rect>
    <rect data-element-id="element-id-94842" stroke-width="2" fill="transparent"
        class="invisible-element-box grouping-element" x="248" y="153" width="73" height="115"
        data-element-name="isIcon"></rect>
    <rect data-element-id="element-id-90358" stroke-width="2" fill="transparent"
        class="invisible-element-box individual-element" x="248" y="153" width="73" height="115"></rect>
    <rect data-element-id="element-id-44909" stroke-width="2" fill="transparent"
        class="invisible-element-box individual-element" x="107" y="154" width="60" height="112"></rect>
    <rect data-element-id="element-id-95492" stroke-width="2" fill="transparent"
        class="invisible-element-box individual-element" x="182" y="154" width="58" height="112"></rect>
    <rect data-element-id="element-id-86483" stroke-width="2" fill="transparent"
        class="invisible-element-box individual-element" x="110" y="285" width="47" height="32"></rect>
    <rect data-element-id="element-id-73194" stroke-width="2" fill="transparent"
        class="invisible-element-box individual-element" x="292" y="285" width="29" height="32"></rect>
    <rect data-element-id="element-id-36766" stroke-width="2" fill="transparent"
        class="invisible-element-box individual-element" x="392" y="285" width="26" height="33"></rect>
    <rect data-element-id="element-id-90844" stroke-width="2" fill="transparent"
        class="invisible-element-box individual-element" x="223" y="285" width="6" height="32"></rect>
</svg>