<svg class="svg-standalone-icon" width="100%"
    viewBox="247.84795650525533 152.59076942811663 72.5991162962205 114.56218351668235">
    <g
        data-paper-data="{&quot;fillRule&quot;:&quot;evenodd&quot;,&quot;fillRuleOriginal&quot;:&quot;evenodd&quot;,&quot;isIcon&quot;:true,&quot;iconStyle&quot;:&quot;icon-in-text&quot;,&quot;selectedEffects&quot;:{&quot;container&quot;:&quot;&quot;,&quot;transformation&quot;:&quot;&quot;,&quot;pattern&quot;:&quot;&quot;},&quot;bounds&quot;:{&quot;x&quot;:247.84795650525533,&quot;y&quot;:152.59076942811663,&quot;width&quot;:72.5991162962205,&quot;height&quot;:114.56218351668235},&quot;iconType&quot;:&quot;icon&quot;,&quot;rawIconId&quot;:&quot;1002580&quot;,&quot;isDetailed&quot;:false,&quot;suitableAsStandaloneIcon&quot;:true}"
        fill-rule="evenodd">
        <path
            d="M320.44707,229.40089c0,24.53904 -5.51701,37.75206 -36.29906,37.75206c-30.78305,0 -36.30006,-13.21302 -36.30006,-37.75206v-39.05806c0,-24.53904 5.51701,-37.75206 36.30006,-37.75206c30.78205,0 36.29906,13.21302 36.29906,37.75206zM288.92465,179.35155l-5.07242,-4.87479l-6.38993,26.02086l10.14484,-2.9644l26.35024,25.16448zM253.22007,224.34458l-1.64689,6.78519l25.75736,-7.50982l-7.64157,-7.31219l8.62971,-35.44107zM294.19469,209.1932l-7.64157,-7.31219l-10.14484,2.9644l-2.50327,10.27659l7.64157,7.24632l10.14484,-2.9644zM310.07072,232.71079l6.71931,-1.97627l-19.36742,-18.51104l-2.50327,10.27659l-34.97994,10.21072z"
            data-paper-data="{&quot;isPathIcon&quot;:true}" style="fill: rgb(0, 0, 0);"></path>
    </g>
</svg>